<?xml version="1.0" encoding="utf-8"?>
<!-- Generator: Adobe Illustrator 16.0.0, SVG Export Plug-In . SVG Version: 6.00 Build 0)  -->
<!DOCTYPE svg PUBLIC "-//W3C//DTD SVG 1.1//EN" "http://www.w3.org/Graphics/SVG/1.1/DTD/svg11.dtd">
<svg version="1.1" id="Layer_1" xmlns="http://www.w3.org/2000/svg" xmlns:xlink="http://www.w3.org/1999/xlink" x="0px" y="0px"
	 width="480.058px" height="72.809px" viewBox="0 0 480.058 72.809" enable-background="new 0 0 480.058 72.809"
	 xml:space="preserve">
<g>
	<path fill="#F58220" d="M0,36.627c0-6.16,1.543-11.12,4.629-14.881c3.086-3.76,7.246-5.641,12.48-5.641
		c4.635,0,8.242,1.51,10.82,4.527l0.469-3.785h10.234v38.817c0,3.512-0.84,6.568-2.52,9.166s-4.043,4.576-7.09,5.938
		c-3.047,1.359-6.615,2.041-10.703,2.041c-3.1,0-6.12-0.588-9.063-1.764c-2.943-1.176-5.17-2.689-6.68-4.545l5-6.531
		c2.813,2.992,6.224,4.49,10.234,4.49c2.994,0,5.325-0.762,6.992-2.283c1.666-1.521,2.5-3.68,2.5-6.475v-2.152
		c-2.604,2.795-6.029,4.193-10.273,4.193c-5.078,0-9.187-1.887-12.324-5.66C1.568,48.311,0,43.307,0,37.072V36.627z M11.289,37.39
		c0,3.654,0.768,6.519,2.305,8.593c1.536,2.076,3.646,3.113,6.328,3.113c3.438,0,5.898-1.23,7.383-3.691V28.442
		c-1.511-2.46-3.945-3.69-7.305-3.69c-2.709,0-4.838,1.057-6.387,3.169C12.063,30.033,11.289,33.189,11.289,37.39z"/>
	<path fill="#F58220" d="M57.618,57H46.29V0h11.328V57z"/>
	<path fill="#F58220" d="M147.167,37.295c0,6.432-1.445,11.448-4.336,15.047s-6.928,5.4-12.109,5.4c-4.584,0-8.242-1.67-10.977-5.01
		L119.237,57h-10.156V0h11.289v20.447c2.604-2.895,6.028-4.342,10.273-4.342c5.156,0,9.199,1.8,12.129,5.399
		s4.395,8.665,4.395,15.196V37.295z M135.878,36.478c0-4.069-0.678-7.041-2.031-8.915c-1.354-1.873-3.373-2.811-6.055-2.811
		c-3.594,0-6.068,1.402-7.422,4.206v15.894c1.38,2.83,3.88,4.244,7.5,4.244c3.646,0,6.041-1.713,7.188-5.137
		C135.604,42.321,135.878,39.829,135.878,36.478z"/>
	<path fill="#F58220" d="M173.573,57.743c-6.198,0-11.244-1.807-15.137-5.418c-3.894-3.611-5.84-8.424-5.84-14.436v-1.04
		c0-4.032,0.82-7.638,2.461-10.817c1.641-3.179,3.965-5.628,6.973-7.348c3.008-1.719,6.438-2.579,10.293-2.579
		c5.781,0,10.332,1.732,13.652,5.195c3.32,3.464,4.98,8.375,4.98,14.732v4.379h-26.914c0.364,2.623,1.465,4.725,3.301,6.309
		s4.16,2.375,6.973,2.375c4.349,0,7.747-1.496,10.195-4.49l5.547,5.9c-1.693,2.275-3.984,4.051-6.875,5.324
		S177.089,57.743,173.573,57.743z M172.284,24.752c-2.24,0-4.057,0.721-5.449,2.162c-1.394,1.441-2.285,3.504-2.676,6.188h15.703
		v-0.857c-0.053-2.386-0.729-4.23-2.031-5.535C176.528,25.404,174.68,24.752,172.284,24.752z"/>
	<path fill="#0072BC" d="M214.94,49.096c2.083,0,3.775-0.545,5.078-1.633c1.302-1.088,1.979-2.535,2.031-4.342h10.586
		c-0.026,2.721-0.808,5.213-2.344,7.477c-1.537,2.264-3.64,4.021-6.309,5.27c-2.67,1.25-5.619,1.875-8.848,1.875
		c-6.042,0-10.808-1.824-14.297-5.475c-3.49-3.648-5.234-8.689-5.234-15.122v-0.705c0-6.185,1.731-11.12,5.195-14.807
		c3.463-3.686,8.216-5.529,14.258-5.529c5.286,0,9.524,1.429,12.715,4.286c3.189,2.857,4.811,6.661,4.863,11.411H222.05
		c-0.053-2.089-0.729-3.786-2.031-5.092c-1.303-1.306-3.021-1.959-5.156-1.959c-2.631,0-4.616,0.911-5.957,2.731
		c-1.342,1.821-2.012,4.776-2.012,8.864v1.115c0,4.137,0.664,7.112,1.992,8.92S212.231,49.096,214.94,49.096z"/>
	<path fill="#0072BC" d="M237.323,36.553c0-3.982,0.807-7.533,2.422-10.65c1.614-3.117,3.938-5.529,6.973-7.236
		c3.033-1.707,6.556-2.561,10.565-2.561c5.703,0,10.357,1.658,13.965,4.973c3.607,3.315,5.619,7.818,6.035,13.508l0.078,2.746
		c0,6.161-1.811,11.102-5.43,14.825c-3.619,3.725-8.477,5.586-14.57,5.586c-6.093,0-10.956-1.855-14.589-5.566
		s-5.449-8.758-5.449-15.141V36.553z M248.612,37.314c0,3.815,0.755,6.733,2.266,8.752c1.51,2.02,3.672,3.029,6.483,3.029
		c2.734,0,4.869-0.998,6.406-2.992s2.305-5.184,2.305-9.571c0-3.74-0.768-6.64-2.305-8.696s-3.697-3.085-6.484-3.085
		c-2.76,0-4.896,1.022-6.405,3.066C249.367,29.862,248.612,33.028,248.612,37.314z"/>
	<path fill="#0072BC" d="M294.706,16.848l0.352,4.639c3.02-3.587,7.07-5.381,12.148-5.381c4.479,0,7.813,1.25,10,3.748
		c2.188,2.499,3.307,6.234,3.359,11.207V57h-11.289v-25.74c0-2.28-0.521-3.937-1.563-4.965c-1.043-1.029-2.773-1.544-5.195-1.544
		c-3.178,0-5.561,1.289-7.148,3.868V57h-11.29V16.848H294.706z"/>
	<path fill="#0072BC" d="M339.511,16.848l0.352,4.639c3.021-3.587,7.07-5.381,12.148-5.381c4.479,0,7.813,1.25,10,3.748
		c2.188,2.499,3.307,6.234,3.359,11.207V57h-11.289v-25.74c0-2.28-0.521-3.937-1.563-4.965c-1.042-1.029-2.773-1.544-5.195-1.544
		c-3.178,0-5.561,1.289-7.148,3.868V57h-11.289V16.848H339.511z"/>
	<path fill="#0072BC" d="M393.378,57.743c-6.198,0-11.244-1.807-15.137-5.418c-3.894-3.611-5.84-8.424-5.84-14.436v-1.04
		c0-4.032,0.82-7.638,2.461-10.817c1.641-3.179,3.965-5.628,6.973-7.348c3.008-1.719,6.438-2.579,10.293-2.579
		c5.781,0,10.332,1.732,13.652,5.195c3.32,3.464,4.98,8.375,4.98,14.732v4.379h-26.914c0.364,2.623,1.465,4.725,3.301,6.309
		s4.16,2.375,6.973,2.375c4.349,0,7.747-1.496,10.195-4.49l5.547,5.9c-1.693,2.275-3.984,4.051-6.875,5.324
		S396.894,57.743,393.378,57.743z M392.089,24.752c-2.24,0-4.057,0.721-5.449,2.162c-1.394,1.441-2.285,3.504-2.676,6.188h15.703
		v-0.857c-0.053-2.386-0.729-4.23-2.031-5.535C396.333,25.404,394.484,24.752,392.089,24.752z"/>
	<path fill="#0072BC" d="M434.745,49.096c2.083,0,3.775-0.545,5.078-1.633c1.302-1.088,1.979-2.535,2.031-4.342h10.586
		c-0.026,2.721-0.808,5.213-2.344,7.477c-1.537,2.264-3.64,4.021-6.309,5.27c-2.67,1.25-5.619,1.875-8.848,1.875
		c-6.042,0-10.808-1.824-14.297-5.475c-3.49-3.648-5.234-8.689-5.234-15.122v-0.705c0-6.185,1.731-11.12,5.195-14.807
		c3.463-3.686,8.216-5.529,14.258-5.529c5.286,0,9.524,1.429,12.715,4.286c3.189,2.857,4.811,6.661,4.863,11.411h-10.586
		c-0.053-2.089-0.729-3.786-2.031-5.092c-1.303-1.306-3.021-1.959-5.156-1.959c-2.631,0-4.616,0.911-5.957,2.731
		c-1.342,1.821-2.012,4.776-2.012,8.864v1.115c0,4.137,0.664,7.112,1.992,8.92S432.036,49.096,434.745,49.096z"/>
	<path fill="#0072BC" d="M472.401,6.977v9.871h7.227v7.867h-7.227v20.04c0,1.484,0.299,2.549,0.898,3.191
		c0.599,0.643,1.744,0.965,3.438,0.965c1.25,0,2.356-0.086,3.32-0.26v8.127c-2.214,0.643-4.492,0.965-6.836,0.965
		c-7.917,0-11.953-3.797-12.109-11.393V24.715h-6.172v-7.867h6.172V6.977H472.401z"/>
	<g>
		<g>
			<path fill-rule="evenodd" clip-rule="evenodd" fill="#0072BC" d="M83.288,56.95C72.331,56.938,63.392,47.903,63.4,36.853
				c0.008-11.086,9.006-20.074,20.068-20.046c10.938,0.029,19.851,9.094,19.827,20.163C103.271,47.991,94.287,56.963,83.288,56.95z
				 M88.002,36.082c0.977,0,1.954-0.037,2.927,0.012c0.713,0.036,0.908-0.236,0.88-0.921c-0.072-1.712-0.329-3.395-0.612-5.078
				c-0.101-0.597-0.331-0.901-1.022-0.882c-1.71,0.053-3.419,0.036-5.126,0.007c-0.613-0.011-0.873,0.164-0.86,0.823
				c0.033,1.748,0.037,3.5-0.002,5.247c-0.015,0.69,0.297,0.817,0.886,0.8C86.047,36.059,87.025,36.082,88.002,36.082z
				 M78.689,36.082c0.979,0,1.958-0.023,2.936,0.008c0.596,0.02,0.898-0.12,0.885-0.806c-0.038-1.752-0.027-3.507-0.006-5.26
				c0.007-0.556-0.151-0.813-0.755-0.804c-1.753,0.027-3.508,0.021-5.262,0.003c-0.528-0.007-0.789,0.144-0.902,0.716
				c-0.346,1.764-0.562,3.537-0.678,5.327c-0.046,0.674,0.23,0.847,0.845,0.823C76.73,36.057,77.712,36.082,78.689,36.082z
				 M84.2,41.194c0,0.934,0.02,1.871-0.007,2.805c-0.015,0.516,0.155,0.725,0.695,0.717c1.831-0.023,3.662-0.016,5.493-0.004
				c0.448,0.002,0.623-0.176,0.714-0.621c0.352-1.797,0.619-3.602,0.697-5.432c0.023-0.488,0.012-0.877-0.666-0.867
				c-2.074,0.023-4.147,0.02-6.224,0.002c-0.522-0.004-0.723,0.193-0.71,0.715C84.22,39.403,84.202,40.297,84.2,41.194z
				 M79.008,37.799c-0.357,0-0.521,0-0.685,0c-3.61,0-3.61,0-3.154,3.604c0.42,3.305,0.42,3.305,3.73,3.305
				c0.123,0,0.246,0.008,0.366,0c1.043-0.078,2.385,0.449,3.05-0.232c0.606-0.623,0.185-1.943,0.163-2.951
				c-0.022-1.207,0.534-2.764-0.24-3.523C81.525,37.302,79.985,37.875,79.008,37.799z M69.75,36.082
				c0.854,0,1.713-0.023,2.564,0.008c0.584,0.021,0.888-0.107,0.9-0.791c0.035-1.791,0.241-3.573,0.622-5.322
				c0.146-0.684-0.161-0.757-0.696-0.75c-1.466,0.013-2.934,0.029-4.398-0.009c-0.605-0.015-0.867,0.291-1.077,0.779
				c-0.665,1.543-1.049,3.155-1.324,4.807c-0.173,1.025,0.167,1.407,1.212,1.293C68.279,36.019,69.018,36.083,69.75,36.082z
				 M96.943,36.082c0.854,0,1.715-0.037,2.565,0.011c0.722,0.041,0.937-0.247,0.859-0.93c-0.184-1.627-0.603-3.184-1.151-4.726
				c-0.35-0.976-0.891-1.303-1.898-1.229c-1.217,0.089-2.444,0.035-3.667,0.015c-0.585-0.009-0.879,0.043-0.729,0.807
				c0.34,1.716,0.6,3.452,0.578,5.209c-0.007,0.642,0.257,0.869,0.875,0.848C95.23,36.059,96.088,36.08,96.943,36.082z
				 M69.984,37.799c-1.047,0-1.905,0.045-2.754-0.014c-0.8-0.055-0.988,0.285-0.893,1.002c0.241,1.826,0.715,3.578,1.465,5.262
				c0.24,0.541,0.578,0.682,1.129,0.67c1.384-0.033,2.77-0.041,4.152,0.002c0.715,0.021,0.934-0.176,0.762-0.908
				c-0.202-0.865-0.303-1.758-0.418-2.645c-0.14-1.078,0.118-2.496-0.474-3.152C72.324,37.324,70.877,37.891,69.984,37.799z
				 M96.991,37.799c-0.854,0-1.709,0.031-2.56-0.012c-0.671-0.035-0.94,0.182-0.937,0.889c0.016,1.75-0.24,3.482-0.6,5.189
				c-0.133,0.648-0.057,0.875,0.651,0.855c1.461-0.043,2.925-0.031,4.387-0.002c0.484,0.01,0.731-0.188,0.925-0.602
				c0.8-1.709,1.244-3.508,1.499-5.369c0.107-0.77-0.185-1.01-0.929-0.961C98.618,37.838,97.803,37.799,96.991,37.799z
				 M84.197,23.599c0,1.019,0.026,2.037-0.009,3.054c-0.019,0.602,0.142,0.89,0.813,0.874c1.586-0.035,3.174-0.038,4.762,0.002
				c0.684,0.017,0.748-0.242,0.549-0.79c-0.665-1.844-1.425-3.643-2.688-5.167c-0.438-0.53-0.955-1.001-1.468-1.464
				c-0.5-0.452-1.178-0.494-1.728-0.288c-0.473,0.177-0.202,0.797-0.219,1.216C84.172,21.889,84.197,22.744,84.197,23.599z
				 M82.497,23.866c0-1.146,0.005-2.085,0-3.023c-0.009-1.119-0.326-1.379-1.372-1.002c-0.402,0.144-0.772,0.448-1.098,0.747
				c-1.351,1.237-2.232,2.791-2.938,4.456c-1.043,2.469-1.035,2.493,1.603,2.463c1.214-0.014,2.798,0.521,3.544-0.207
				C83.045,26.51,82.369,24.901,82.497,23.866z M84.2,50.215c0,0.855-0.003,1.711,0,2.564c0.003,1.289,0.534,1.617,1.697,1.012
				c0.317-0.164,0.597-0.42,0.859-0.674c1.721-1.646,2.695-3.738,3.483-5.939c0.23-0.645-0.04-0.768-0.617-0.76
				c-1.546,0.021-3.094,0.037-4.64-0.006c-0.688-0.02-0.813,0.283-0.792,0.873C84.225,48.262,84.2,49.239,84.2,50.215z
				 M82.495,50.239c0-1.016-0.025-2.031,0.008-3.047c0.021-0.57-0.169-0.787-0.758-0.775c-1.585,0.031-3.171,0.023-4.753,0.004
				c-0.588-0.008-0.694,0.205-0.505,0.73c0.521,1.457,1.136,2.865,1.984,4.162c0.604,0.928,1.316,1.754,2.215,2.406
				c0.461,0.334,1.03,0.4,1.517,0.244c0.553-0.178,0.257-0.766,0.279-1.168C82.525,51.946,82.496,51.09,82.495,50.239z
				 M77.287,21.104c-0.113-0.065-0.158-0.111-0.184-0.104c-3.284,1.031-5.675,3.229-7.687,5.91
				c-0.289,0.388-0.107,0.601,0.348,0.601c1.385,0.001,2.771-0.009,4.155,0.003c0.433,0.004,0.558-0.294,0.649-0.604
				C75.189,24.842,76.034,22.877,77.287,21.104z M89.516,20.996c1.105,1.796,1.97,3.673,2.583,5.669
				c0.124,0.408,0.182,0.878,0.829,0.859c1.306-0.037,2.608-0.011,3.915-0.012c0.457,0,0.78-0.125,0.415-0.629
				C95.275,24.158,92.768,22.115,89.516,20.996z M77.058,52.684c-1.001-1.91-1.909-3.811-2.497-5.848
				c-0.069-0.246-0.246-0.406-0.536-0.406c-1.562,0.004-3.12,0.002-4.88,0.002C71.235,49.479,73.777,51.514,77.058,52.684z
				 M89.522,52.778c3.327-1.227,5.939-3.273,8.032-6.354c-1.673,0-3.056,0.035-4.435-0.016c-0.664-0.025-0.914,0.256-1.089,0.844
				C91.445,49.196,90.604,51.03,89.522,52.778z"/>
		</g>
	</g>
</g>
</svg>
